<svg width="41" height="44" viewBox="0 0 41 44" version="1.1" xmlns="http://www.w3.org/2000/svg" xmlns:xlink="http://www.w3.org/1999/xlink">
<g id="Canvas" fill="none">
<g id="Group">
<g id="Vector">
<path fill-rule="evenodd" clip-rule="evenodd" d="M 31.745 3.22491L 31.745 3.47491L 31.745 22.8762C 31.745 23.7007 32.3991 24.3636 33.1821 24.3636C 33.9652 24.3636 34.6193 23.7007 34.6193 22.8762L 34.6193 1.73741C 34.6193 0.912909 33.9652 0.25 33.1821 0.25L 1.6872 0.25C 0.904226 0.25 0.25 0.912918 0.25 1.73741L 0.25 41.4089C 0.25 42.2334 0.904139 42.8963 1.6872 42.8963L 16.3099 42.8963C 17.093 42.8963 17.7471 42.2334 17.7471 41.4089C 17.7471 40.5844 17.093 39.9215 16.3099 39.9215L 3.37451 39.9215L 3.12451 39.9215L 3.12451 39.6715L 3.12451 3.47491L 3.12451 3.22491L 3.37451 3.22491L 31.495 3.22491L 31.745 3.22491ZM 37.9841 27.4112L 37.9824 27.4132L 28.7307 38.0115L 28.5554 38.2123L 28.3663 38.0245L 23.7269 33.4208C 23.7267 33.4207 23.7266 33.4206 23.7265 33.4205C 23.1533 32.8551 22.2471 32.878 21.6952 33.4711C 21.1413 34.0664 21.1646 35.0124 21.7441 35.5842L 21.7444 35.5846L 27.6497 41.4339L 27.6531 41.4373L 27.6531 41.4373C 27.9138 41.7058 28.2702 41.8538 28.6548 41.8538L 28.6549 41.8538L 28.6551 41.8538L 28.6553 41.8538L 28.6554 41.8538L 28.6556 41.8538L 28.6558 41.8538L 28.6559 41.8538L 28.6561 41.8538L 28.6562 41.8538L 28.6564 41.8538L 28.6565 41.8538L 28.6567 41.8538L 28.6569 41.8538L 28.657 41.8538L 28.6572 41.8538L 28.6573 41.8538L 28.6575 41.8538L 28.6576 41.8538L 28.6578 41.8538L 28.6579 41.8538L 28.6581 41.8538L 28.6582 41.8538L 28.6584 41.8538L 28.6585 41.8538L 28.6587 41.8538L 28.6588 41.8538L 28.659 41.8538L 28.6591 41.8538L 28.6593 41.8538L 28.6594 41.8538L 28.6596 41.8538L 28.6597 41.8538L 28.6599 41.8538L 28.66 41.8538L 28.6602 41.8538L 28.6603 41.8538L 28.6604 41.8538L 28.6606 41.8538L 28.6607 41.8538L 28.6609 41.8538L 28.661 41.8538L 28.6612 41.8538L 28.6613 41.8538L 28.6614 41.8538L 28.6616 41.8538L 28.6617 41.8538L 28.6618 41.8538L 28.662 41.8538L 28.6621 41.8538L 28.6623 41.8538L 28.6624 41.8538L 28.6625 41.8538L 28.6627 41.8538L 28.6628 41.8538L 28.6629 41.8538L 28.6631 41.8538L 28.6632 41.8538L 28.6633 41.8538L 28.6635 41.8538L 28.6636 41.8538L 28.6637 41.8538L 28.6638 41.8538L 28.664 41.8538L 28.6641 41.8538L 28.6642 41.8538L 28.6644 41.8538L 28.6645 41.8538L 28.6646 41.8538L 28.6647 41.8538L 28.6649 41.8538L 28.665 41.8538L 28.6651 41.8538L 28.6652 41.8538L 28.6654 41.8538L 28.6655 41.8538L 28.6656 41.8538L 28.6657 41.8538L 28.6659 41.8538L 28.666 41.8538L 28.6661 41.8538L 28.6662 41.8538L 28.6663 41.8538L 28.6665 41.8538L 28.6666 41.8538L 28.6667 41.8538L 28.6668 41.8538L 28.6669 41.8538L 28.6671 41.8538L 28.6672 41.8538L 28.6673 41.8538L 28.6674 41.8538L 28.6675 41.8538L 28.6676 41.8538L 28.6678 41.8538L 28.6679 41.8538L 28.668 41.8538L 28.6681 41.8538L 28.6682 41.8538L 28.6683 41.8538L 28.6684 41.8538L 28.6685 41.8538L 28.6687 41.8538L 28.6688 41.8538L 28.6689 41.8538L 28.669 41.8538L 28.6691 41.8538L 28.6692 41.8538L 28.6693 41.8538L 28.6694 41.8538L 28.6695 41.8538L 28.6697 41.8538L 28.6698 41.8538L 28.6699 41.8538L 28.67 41.8538L 28.6701 41.8538L 28.6702 41.8538L 28.6703 41.8538L 28.6704 41.8538L 28.6705 41.8538L 28.6706 41.8538L 28.6707 41.8538L 28.6708 41.8538L 28.6709 41.8538L 28.671 41.8538L 28.6711 41.8538L 28.6712 41.8538L 28.6713 41.8538L 28.6715 41.8538L 28.6716 41.8538L 28.6717 41.8538L 28.6718 41.8538L 28.6719 41.8538L 28.672 41.8538L 28.6721 41.8538L 28.6722 41.8538L 28.6723 41.8538L 28.6724 41.8538L 28.6725 41.8538L 28.6726 41.8538L 28.6727 41.8538L 28.6728 41.8538L 28.6729 41.8538L 28.673 41.8538L 28.6731 41.8538L 28.6732 41.8538L 28.6733 41.8538L 28.6734 41.8538L 28.6734 41.8538L 28.6735 41.8538L 28.6736 41.8538L 28.6737 41.8538L 28.6738 41.8538L 28.6739 41.8538L 28.674 41.8538L 28.6741 41.8538L 28.6742 41.8538L 28.6743 41.8538L 28.6744 41.8538L 28.6745 41.8538L 28.6746 41.8538L 28.6747 41.8538L 28.6748 41.8538L 28.6749 41.8538L 28.675 41.8538L 28.6751 41.8538L 28.6752 41.8538L 28.6752 41.8538L 28.6753 41.8538L 28.6754 41.8538L 28.6755 41.8538L 28.6756 41.8538L 28.6757 41.8538L 28.6758 41.8538L 28.6759 41.8538L 28.676 41.8538L 28.6761 41.8538L 28.6762 41.8538L 28.6762 41.8538L 28.6763 41.8538L 28.6764 41.8538L 28.6765 41.8538L 28.6766 41.8538L 28.6767 41.8538L 28.6768 41.8538L 28.6769 41.8538L 28.677 41.8538L 28.677 41.8538L 28.6771 41.8538L 28.6772 41.8538L 28.6773 41.8538L 28.6774 41.8538L 28.6775 41.8538L 28.6776 41.8538L 28.6777 41.8538L 28.6778 41.8538L 28.6778 41.8538L 28.6779 41.8538L 28.678 41.8538L 28.6781 41.8538L 28.6782 41.8538L 28.6783 41.8538L 28.6784 41.8538L 28.6784 41.8538L 28.6785 41.8538L 28.6786 41.8538L 28.6787 41.8538L 28.6788 41.8538L 28.6789 41.8538L 28.679 41.8538L 28.679 41.8538L 28.6791 41.8538L 28.6792 41.8538L 28.6793 41.8538L 28.6794 41.8538L 28.6795 41.8538L 28.6795 41.8538L 28.6796 41.8538L 28.6797 41.8538L 28.6798 41.8538L 28.6799 41.8538L 28.68 41.8538L 28.6801 41.8538L 28.6801 41.8538L 28.6802 41.8538L 28.6803 41.8538L 28.6804 41.8538L 28.6805 41.8538L 28.6806 41.8538L 28.6806 41.8538L 28.6807 41.8538L 28.6808 41.8538L 28.6809 41.8538L 28.681 41.8538L 28.6811 41.8538L 28.6811 41.8538L 28.6812 41.8538L 28.6813 41.8538L 28.6814 41.8538L 28.6815 41.8538L 28.6816 41.8538L 28.6816 41.8538L 28.6817 41.8538L 28.6818 41.8538L 28.6819 41.8538L 28.682 41.8538L 28.682 41.8538L 28.6821 41.8538L 28.6822 41.8538L 28.6823 41.8538L 28.6824 41.8538L 28.6825 41.8538L 28.6825 41.8538L 28.6826 41.8538L 28.6827 41.8538L 28.6828 41.8538L 28.6829 41.8538L 28.683 41.8538L 28.683 41.8538L 28.6831 41.8538L 28.6832 41.8538L 28.6833 41.8538L 28.6834 41.8538L 28.6834 41.8538L 28.6835 41.8538L 28.6836 41.8538L 28.6837 41.8538L 28.6838 41.8538L 28.6839 41.8538L 28.6839 41.8538L 28.684 41.8538L 28.6841 41.8538L 28.6842 41.8538L 28.6843 41.8538L 28.6844 41.8538L 28.6844 41.8538L 28.6845 41.8538L 28.6846 41.8538L 28.6847 41.8538L 28.6848 41.8538L 28.6849 41.8538L 28.6849 41.8538L 28.685 41.8538L 28.6851 41.8538L 28.6852 41.8538L 28.6853 41.8538L 28.6854 41.8538L 28.6854 41.8538L 28.6855 41.8538L 28.6856 41.8538L 28.6857 41.8538L 28.6858 41.8538L 28.6859 41.8538L 28.6859 41.8538L 28.686 41.8538L 28.6861 41.8538L 28.6862 41.8538L 28.6863 41.8538L 28.6864 41.8538L 28.6864 41.8538L 28.6865 41.8538L 28.6866 41.8538L 28.6867 41.8538L 28.6868 41.8538L 28.6869 41.8538L 28.687 41.8538L 28.687 41.8538L 28.6871 41.8538L 28.6872 41.8538L 28.6873 41.8538L 28.6874 41.8538L 28.6875 41.8538L 28.6876 41.8538L 28.6876 41.8538L 28.6877 41.8538L 28.6878 41.8538L 28.6879 41.8538L 28.688 41.8538L 28.6881 41.8538L 28.6882 41.8538L 28.6883 41.8538L 28.6883 41.8538L 28.6884 41.8538L 28.6885 41.8538L 28.6886 41.8538L 28.6887 41.8538L 28.6888 41.8538L 28.6889 41.8538L 28.689 41.8538L 28.6891 41.8538L 28.6891 41.8538L 28.6892 41.8538L 28.6893 41.8538L 28.6894 41.8538L 28.6895 41.8538L 28.6896 41.8538L 28.6897 41.8538L 28.6898 41.8538L 28.6899 41.8538L 28.69 41.8538L 28.69 41.8538L 28.6901 41.8538L 28.6902 41.8538L 28.6903 41.8538L 28.6904 41.8538L 28.6905 41.8538L 28.6906 41.8538L 28.6907 41.8538L 28.6908 41.8538L 28.6909 41.8538L 28.691 41.8538L 28.6911 41.8538L 28.6912 41.8538L 28.6913 41.8538L 28.6913 41.8538L 28.6914 41.8538L 28.6915 41.8538L 28.6916 41.8538L 28.6917 41.8538L 28.6918 41.8538L 28.6919 41.8538L 28.692 41.8538L 28.6921 41.8538L 28.6922 41.8538L 28.6923 41.8538L 28.6924 41.8538L 28.6925 41.8538L 28.6926 41.8538L 28.6927 41.8538L 28.6928 41.8538L 28.6929 41.8538L 28.693 41.8538L 28.6931 41.8538L 28.6932 41.8538L 28.6933 41.8538L 28.6934 41.8538L 28.6935 41.8538L 28.6936 41.8538L 28.6937 41.8538L 28.6938 41.8538L 28.6939 41.8538L 28.694 41.8538L 28.6941 41.8538L 28.6942 41.8538L 28.6943 41.8538L 28.6944 41.8538L 28.6945 41.8538L 28.6946 41.8538L 28.6947 41.8538L 28.6948 41.8538L 28.6949 41.8538L 28.695 41.8538L 28.6951 41.8538L 28.6953 41.8538L 28.6954 41.8538L 28.6955 41.8538L 28.6956 41.8538L 28.6957 41.8538L 28.6958 41.8538L 28.6959 41.8538L 28.696 41.8538L 28.6961 41.8538L 28.6962 41.8538L 28.6963 41.8538L 28.6964 41.8538L 28.6966 41.8538L 28.6967 41.8538L 28.6968 41.8538L 28.6969 41.8538L 28.697 41.8538L 28.6971 41.8538L 28.6972 41.8538L 28.6973 41.8538L 28.6974 41.8538L 28.6976 41.8538L 28.6977 41.8538L 28.6978 41.8538L 28.6979 41.8538L 28.698 41.8538L 28.6981 41.8538L 28.6983 41.8538L 28.6984 41.8538L 28.6985 41.8538L 28.6986 41.8538L 28.6987 41.8538L 28.6988 41.8538L 28.699 41.8538L 28.6991 41.8538L 28.6992 41.8538L 28.6993 41.8538L 28.6994 41.8538L 28.6996 41.8538L 28.6997 41.8538L 28.6998 41.8538L 28.6999 41.8538L 28.7 41.8538L 28.7002 41.8538L 28.7003 41.8538L 28.7004 41.8538L 28.7005 41.8538L 28.7007 41.8538L 28.7008 41.8538L 28.7009 41.8538L 28.701 41.8538L 28.7012 41.8538L 28.7013 41.8538L 28.7014 41.8538L 28.7016 41.8538L 28.7017 41.8538L 28.7018 41.8538L 28.7019 41.8538L 28.7021 41.8538L 28.7022 41.8538L 28.7023 41.8538L 28.7025 41.8538L 28.7026 41.8538L 28.7027 41.8538C 29.0916 41.8268 29.4687 41.6505 29.6977 41.3674L 29.7035 41.3602L 29.7037 41.3603L 40.1071 29.4313C 40.1073 29.431 40.1076 29.4307 40.1079 29.4304C 40.6702 28.7749 40.6134 27.8303 40.0164 27.2892C 39.4159 26.7451 38.5096 26.7962 37.9841 27.4112ZM 25.3085 10.3851L 10.1234 10.3851C 9.34035 10.3851 8.68621 11.048 8.68621 11.8725C 8.68621 12.697 9.34035 13.3599 10.1234 13.3599L 25.3085 13.3599C 26.0915 13.3599 26.7457 12.697 26.7457 11.8725C 26.7457 11.048 26.0915 10.3851 25.3085 10.3851ZM 26.7458 21.4283C 26.7458 20.6038 26.0916 19.9409 25.3085 19.9409L 10.1234 19.9409C 9.34035 19.9409 8.68621 20.6038 8.68621 21.4283C 8.68621 22.2528 9.34035 22.9157 10.1234 22.9157L 25.3085 22.9157C 26.0915 22.9157 26.7458 22.2528 26.7458 21.4283ZM 10.1234 29.2072C 9.34035 29.2072 8.68621 29.8701 8.68621 30.6946C 8.68621 31.5191 9.34035 32.182 10.1234 32.182L 14.6227 32.182C 15.4058 32.182 16.0599 31.5191 16.0599 30.6946C 16.0599 29.8701 15.4058 29.2072 14.6227 29.2072L 10.1234 29.2072Z" transform="translate(0.0169678 0.539062)" fill="#EF7D0B"/>
<path fill-rule="evenodd" clip-rule="evenodd" d="M 31.745 3.22491L 31.745 3.47491L 31.745 22.8762C 31.745 23.7007 32.3991 24.3636 33.1821 24.3636C 33.9652 24.3636 34.6193 23.7007 34.6193 22.8762L 34.6193 1.73741C 34.6193 0.912909 33.9652 0.25 33.1821 0.25L 1.6872 0.25C 0.904226 0.25 0.25 0.912918 0.25 1.73741L 0.25 41.4089C 0.25 42.2334 0.904139 42.8963 1.6872 42.8963L 16.3099 42.8963C 17.093 42.8963 17.7471 42.2334 17.7471 41.4089C 17.7471 40.5844 17.093 39.9215 16.3099 39.9215L 3.37451 39.9215L 3.12451 39.9215L 3.12451 39.6715L 3.12451 3.47491L 3.12451 3.22491L 3.37451 3.22491L 31.495 3.22491L 31.745 3.22491ZM 37.9841 27.4112L 37.9824 27.4132L 28.7307 38.0115L 28.5554 38.2123L 28.3663 38.0245L 23.7269 33.4208C 23.7267 33.4207 23.7266 33.4206 23.7265 33.4205C 23.1533 32.8551 22.2471 32.878 21.6952 33.4711C 21.1413 34.0664 21.1646 35.0124 21.7441 35.5842L 21.7444 35.5846L 27.6497 41.4339L 27.6531 41.4373L 27.6531 41.4373C 27.9138 41.7058 28.2702 41.8538 28.6548 41.8538L 28.6549 41.8538L 28.6551 41.8538L 28.6553 41.8538L 28.6554 41.8538L 28.6556 41.8538L 28.6558 41.8538L 28.6559 41.8538L 28.6561 41.8538L 28.6562 41.8538L 28.6564 41.8538L 28.6565 41.8538L 28.6567 41.8538L 28.6569 41.8538L 28.657 41.8538L 28.6572 41.8538L 28.6573 41.8538L 28.6575 41.8538L 28.6576 41.8538L 28.6578 41.8538L 28.6579 41.8538L 28.6581 41.8538L 28.6582 41.8538L 28.6584 41.8538L 28.6585 41.8538L 28.6587 41.8538L 28.6588 41.8538L 28.659 41.8538L 28.6591 41.8538L 28.6593 41.8538L 28.6594 41.8538L 28.6596 41.8538L 28.6597 41.8538L 28.6599 41.8538L 28.66 41.8538L 28.6602 41.8538L 28.6603 41.8538L 28.6604 41.8538L 28.6606 41.8538L 28.6607 41.8538L 28.6609 41.8538L 28.661 41.8538L 28.6612 41.8538L 28.6613 41.8538L 28.6614 41.8538L 28.6616 41.8538L 28.6617 41.8538L 28.6618 41.8538L 28.662 41.8538L 28.6621 41.8538L 28.6623 41.8538L 28.6624 41.8538L 28.6625 41.8538L 28.6627 41.8538L 28.6628 41.8538L 28.6629 41.8538L 28.6631 41.8538L 28.6632 41.8538L 28.6633 41.8538L 28.6635 41.8538L 28.6636 41.8538L 28.6637 41.8538L 28.6638 41.8538L 28.664 41.8538L 28.6641 41.8538L 28.6642 41.8538L 28.6644 41.8538L 28.6645 41.8538L 28.6646 41.8538L 28.6647 41.8538L 28.6649 41.8538L 28.665 41.8538L 28.6651 41.8538L 28.6652 41.8538L 28.6654 41.8538L 28.6655 41.8538L 28.6656 41.8538L 28.6657 41.8538L 28.6659 41.8538L 28.666 41.8538L 28.6661 41.8538L 28.6662 41.8538L 28.6663 41.8538L 28.6665 41.8538L 28.6666 41.8538L 28.6667 41.8538L 28.6668 41.8538L 28.6669 41.8538L 28.6671 41.8538L 28.6672 41.8538L 28.6673 41.8538L 28.6674 41.8538L 28.6675 41.8538L 28.6676 41.8538L 28.6678 41.8538L 28.6679 41.8538L 28.668 41.8538L 28.6681 41.8538L 28.6682 41.8538L 28.6683 41.8538L 28.6684 41.8538L 28.6685 41.8538L 28.6687 41.8538L 28.6688 41.8538L 28.6689 41.8538L 28.669 41.8538L 28.6691 41.8538L 28.6692 41.8538L 28.6693 41.8538L 28.6694 41.8538L 28.6695 41.8538L 28.6697 41.8538L 28.6698 41.8538L 28.6699 41.8538L 28.67 41.8538L 28.6701 41.8538L 28.6702 41.8538L 28.6703 41.8538L 28.6704 41.8538L 28.6705 41.8538L 28.6706 41.8538L 28.6707 41.8538L 28.6708 41.8538L 28.6709 41.8538L 28.671 41.8538L 28.6711 41.8538L 28.6712 41.8538L 28.6713 41.8538L 28.6715 41.8538L 28.6716 41.8538L 28.6717 41.8538L 28.6718 41.8538L 28.6719 41.8538L 28.672 41.8538L 28.6721 41.8538L 28.6722 41.8538L 28.6723 41.8538L 28.6724 41.8538L 28.6725 41.8538L 28.6726 41.8538L 28.6727 41.8538L 28.6728 41.8538L 28.6729 41.8538L 28.673 41.8538L 28.6731 41.8538L 28.6732 41.8538L 28.6733 41.8538L 28.6734 41.8538L 28.6734 41.8538L 28.6735 41.8538L 28.6736 41.8538L 28.6737 41.8538L 28.6738 41.8538L 28.6739 41.8538L 28.674 41.8538L 28.6741 41.8538L 28.6742 41.8538L 28.6743 41.8538L 28.6744 41.8538L 28.6745 41.8538L 28.6746 41.8538L 28.6747 41.8538L 28.6748 41.8538L 28.6749 41.8538L 28.675 41.8538L 28.6751 41.8538L 28.6752 41.8538L 28.6752 41.8538L 28.6753 41.8538L 28.6754 41.8538L 28.6755 41.8538L 28.6756 41.8538L 28.6757 41.8538L 28.6758 41.8538L 28.6759 41.8538L 28.676 41.8538L 28.6761 41.8538L 28.6762 41.8538L 28.6762 41.8538L 28.6763 41.8538L 28.6764 41.8538L 28.6765 41.8538L 28.6766 41.8538L 28.6767 41.8538L 28.6768 41.8538L 28.6769 41.8538L 28.677 41.8538L 28.677 41.8538L 28.6771 41.8538L 28.6772 41.8538L 28.6773 41.8538L 28.6774 41.8538L 28.6775 41.8538L 28.6776 41.8538L 28.6777 41.8538L 28.6778 41.8538L 28.6778 41.8538L 28.6779 41.8538L 28.678 41.8538L 28.6781 41.8538L 28.6782 41.8538L 28.6783 41.8538L 28.6784 41.8538L 28.6784 41.8538L 28.6785 41.8538L 28.6786 41.8538L 28.6787 41.8538L 28.6788 41.8538L 28.6789 41.8538L 28.679 41.8538L 28.679 41.8538L 28.6791 41.8538L 28.6792 41.8538L 28.6793 41.8538L 28.6794 41.8538L 28.6795 41.8538L 28.6795 41.8538L 28.6796 41.8538L 28.6797 41.8538L 28.6798 41.8538L 28.6799 41.8538L 28.68 41.8538L 28.6801 41.8538L 28.6801 41.8538L 28.6802 41.8538L 28.6803 41.8538L 28.6804 41.8538L 28.6805 41.8538L 28.6806 41.8538L 28.6806 41.8538L 28.6807 41.8538L 28.6808 41.8538L 28.6809 41.8538L 28.681 41.8538L 28.6811 41.8538L 28.6811 41.8538L 28.6812 41.8538L 28.6813 41.8538L 28.6814 41.8538L 28.6815 41.8538L 28.6816 41.8538L 28.6816 41.8538L 28.6817 41.8538L 28.6818 41.8538L 28.6819 41.8538L 28.682 41.8538L 28.682 41.8538L 28.6821 41.8538L 28.6822 41.8538L 28.6823 41.8538L 28.6824 41.8538L 28.6825 41.8538L 28.6825 41.8538L 28.6826 41.8538L 28.6827 41.8538L 28.6828 41.8538L 28.6829 41.8538L 28.683 41.8538L 28.683 41.8538L 28.6831 41.8538L 28.6832 41.8538L 28.6833 41.8538L 28.6834 41.8538L 28.6834 41.8538L 28.6835 41.8538L 28.6836 41.8538L 28.6837 41.8538L 28.6838 41.8538L 28.6839 41.8538L 28.6839 41.8538L 28.684 41.8538L 28.6841 41.8538L 28.6842 41.8538L 28.6843 41.8538L 28.6844 41.8538L 28.6844 41.8538L 28.6845 41.8538L 28.6846 41.8538L 28.6847 41.8538L 28.6848 41.8538L 28.6849 41.8538L 28.6849 41.8538L 28.685 41.8538L 28.6851 41.8538L 28.6852 41.8538L 28.6853 41.8538L 28.6854 41.8538L 28.6854 41.8538L 28.6855 41.8538L 28.6856 41.8538L 28.6857 41.8538L 28.6858 41.8538L 28.6859 41.8538L 28.6859 41.8538L 28.686 41.8538L 28.6861 41.8538L 28.6862 41.8538L 28.6863 41.8538L 28.6864 41.8538L 28.6864 41.8538L 28.6865 41.8538L 28.6866 41.8538L 28.6867 41.8538L 28.6868 41.8538L 28.6869 41.8538L 28.687 41.8538L 28.687 41.8538L 28.6871 41.8538L 28.6872 41.8538L 28.6873 41.8538L 28.6874 41.8538L 28.6875 41.8538L 28.6876 41.8538L 28.6876 41.8538L 28.6877 41.8538L 28.6878 41.8538L 28.6879 41.8538L 28.688 41.8538L 28.6881 41.8538L 28.6882 41.8538L 28.6883 41.8538L 28.6883 41.8538L 28.6884 41.8538L 28.6885 41.8538L 28.6886 41.8538L 28.6887 41.8538L 28.6888 41.8538L 28.6889 41.8538L 28.689 41.8538L 28.6891 41.8538L 28.6891 41.8538L 28.6892 41.8538L 28.6893 41.8538L 28.6894 41.8538L 28.6895 41.8538L 28.6896 41.8538L 28.6897 41.8538L 28.6898 41.8538L 28.6899 41.8538L 28.69 41.8538L 28.69 41.8538L 28.6901 41.8538L 28.6902 41.8538L 28.6903 41.8538L 28.6904 41.8538L 28.6905 41.8538L 28.6906 41.8538L 28.6907 41.8538L 28.6908 41.8538L 28.6909 41.8538L 28.691 41.8538L 28.6911 41.8538L 28.6912 41.8538L 28.6913 41.8538L 28.6913 41.8538L 28.6914 41.8538L 28.6915 41.8538L 28.6916 41.8538L 28.6917 41.8538L 28.6918 41.8538L 28.6919 41.8538L 28.692 41.8538L 28.6921 41.8538L 28.6922 41.8538L 28.6923 41.8538L 28.6924 41.8538L 28.6925 41.8538L 28.6926 41.8538L 28.6927 41.8538L 28.6928 41.8538L 28.6929 41.8538L 28.693 41.8538L 28.6931 41.8538L 28.6932 41.8538L 28.6933 41.8538L 28.6934 41.8538L 28.6935 41.8538L 28.6936 41.8538L 28.6937 41.8538L 28.6938 41.8538L 28.6939 41.8538L 28.694 41.8538L 28.6941 41.8538L 28.6942 41.8538L 28.6943 41.8538L 28.6944 41.8538L 28.6945 41.8538L 28.6946 41.8538L 28.6947 41.8538L 28.6948 41.8538L 28.6949 41.8538L 28.695 41.8538L 28.6951 41.8538L 28.6953 41.8538L 28.6954 41.8538L 28.6955 41.8538L 28.6956 41.8538L 28.6957 41.8538L 28.6958 41.8538L 28.6959 41.8538L 28.696 41.8538L 28.6961 41.8538L 28.6962 41.8538L 28.6963 41.8538L 28.6964 41.8538L 28.6966 41.8538L 28.6967 41.8538L 28.6968 41.8538L 28.6969 41.8538L 28.697 41.8538L 28.6971 41.8538L 28.6972 41.8538L 28.6973 41.8538L 28.6974 41.8538L 28.6976 41.8538L 28.6977 41.8538L 28.6978 41.8538L 28.6979 41.8538L 28.698 41.8538L 28.6981 41.8538L 28.6983 41.8538L 28.6984 41.8538L 28.6985 41.8538L 28.6986 41.8538L 28.6987 41.8538L 28.6988 41.8538L 28.699 41.8538L 28.6991 41.8538L 28.6992 41.8538L 28.6993 41.8538L 28.6994 41.8538L 28.6996 41.8538L 28.6997 41.8538L 28.6998 41.8538L 28.6999 41.8538L 28.7 41.8538L 28.7002 41.8538L 28.7003 41.8538L 28.7004 41.8538L 28.7005 41.8538L 28.7007 41.8538L 28.7008 41.8538L 28.7009 41.8538L 28.701 41.8538L 28.7012 41.8538L 28.7013 41.8538L 28.7014 41.8538L 28.7016 41.8538L 28.7017 41.8538L 28.7018 41.8538L 28.7019 41.8538L 28.7021 41.8538L 28.7022 41.8538L 28.7023 41.8538L 28.7025 41.8538L 28.7026 41.8538L 28.7027 41.8538C 29.0916 41.8268 29.4687 41.6505 29.6977 41.3674L 29.7035 41.3602L 29.7037 41.3603L 40.1071 29.4313C 40.1073 29.431 40.1076 29.4307 40.1079 29.4304C 40.6702 28.7749 40.6134 27.8303 40.0164 27.2892C 39.4159 26.7451 38.5096 26.7962 37.9841 27.4112ZM 25.3085 10.3851L 10.1234 10.3851C 9.34035 10.3851 8.68621 11.048 8.68621 11.8725C 8.68621 12.697 9.34035 13.3599 10.1234 13.3599L 25.3085 13.3599C 26.0915 13.3599 26.7457 12.697 26.7457 11.8725C 26.7457 11.048 26.0915 10.3851 25.3085 10.3851ZM 26.7458 21.4283C 26.7458 20.6038 26.0916 19.9409 25.3085 19.9409L 10.1234 19.9409C 9.34035 19.9409 8.68621 20.6038 8.68621 21.4283C 8.68621 22.2528 9.34035 22.9157 10.1234 22.9157L 25.3085 22.9157C 26.0915 22.9157 26.7458 22.2528 26.7458 21.4283ZM 10.1234 29.2072C 9.34035 29.2072 8.68621 29.8701 8.68621 30.6946C 8.68621 31.5191 9.34035 32.182 10.1234 32.182L 14.6227 32.182C 15.4058 32.182 16.0599 31.5191 16.0599 30.6946C 16.0599 29.8701 15.4058 29.2072 14.6227 29.2072L 10.1234 29.2072Z" stroke-width="0.5" stroke-miterlimit="8" transform="translate(0.0169678 0.539062)" stroke="#F5F5F5"/>
</g>
</g>
</g>
</svg>

