<svg width="43" height="46" viewBox="0 0 43 46" version="1.1" xmlns="http://www.w3.org/2000/svg" xmlns:xlink="http://www.w3.org/1999/xlink">
<g id="Canvas" fill="none">
<g id="Group">
<g id="Vector">
<path fill-rule="evenodd" clip-rule="evenodd" d="M 12.9401 1.65733C 15.5855 0.488644 18.3402 -0.1 21.2385 -0.1C 24.1374 -0.1 26.9124 0.49424 29.5605 1.65724C 34.8579 3.98377 38.6882 7.91965 40.9411 13.3283C 42.0761 16.052 42.647 18.8871 42.647 21.8704C 42.647 24.8542 42.0757 27.7133 40.9411 30.4372C 38.6878 35.8451 34.8577 39.8056 29.5601 42.1323C 26.9124 43.2947 24.137 43.8889 21.2385 43.8889C 18.3401 43.8889 15.586 43.3009 12.9401 42.1322C 7.6869 39.8112 3.83938 35.8543 1.5826 30.4371C 0.451255 27.7215 -0.1 24.8537 -0.1 21.8704C -0.1 18.8876 0.451293 16.0433 1.5826 13.3283C 3.83946 7.91093 7.68661 3.97767 12.9401 1.65733ZM 30.6136 38.5672L 30.5621 38.4814C 33.4288 36.7605 35.7043 34.4334 37.3658 31.4993C 39.0369 28.5471 39.8644 25.3273 39.8644 21.8704C 39.8644 18.4138 39.0315 15.221 37.3654 12.2904L 37.4523 12.2409L 37.3653 12.2903C 35.6989 9.35854 33.4282 7.02904 30.5617 5.30807L 30.6131 5.22234L 30.5617 5.30807C 27.7133 3.59781 24.5937 2.73494 21.2385 2.73494C 17.8839 2.73494 14.7842 3.59272 11.9394 5.30797L 11.8878 5.22234L 11.9394 5.30798C 9.09313 7.02392 6.81707 9.3535 5.15907 12.2902L 5.07199 12.241L 5.15907 12.2902C 3.50724 15.2156 2.68265 18.4136 2.68265 21.8705C 2.68265 24.4695 3.15871 26.9758 4.14045 29.33L 4.14046 29.33C 5.12622 31.6955 6.44367 33.7523 8.09747 35.4553C 9.75132 37.1578 11.7291 38.5046 14.0218 39.5297C 16.3119 40.554 18.7173 41.0541 21.239 41.0541C 24.5937 41.0541 27.7139 40.1917 30.5621 38.4814L 30.6136 38.5672Z" transform="translate(0.218567 1.10693)" fill="#EF7D0B"/>
<path fill-rule="evenodd" clip-rule="evenodd" d="M 12.9401 1.65733C 15.5855 0.488644 18.3402 -0.1 21.2385 -0.1C 24.1374 -0.1 26.9124 0.49424 29.5605 1.65724C 34.8579 3.98377 38.6882 7.91965 40.9411 13.3283C 42.0761 16.052 42.647 18.8871 42.647 21.8704C 42.647 24.8542 42.0757 27.7133 40.9411 30.4372C 38.6878 35.8451 34.8577 39.8056 29.5601 42.1323C 26.9124 43.2947 24.137 43.8889 21.2385 43.8889C 18.3401 43.8889 15.586 43.3009 12.9401 42.1322C 7.6869 39.8112 3.83938 35.8543 1.5826 30.4371C 0.451255 27.7215 -0.1 24.8537 -0.1 21.8704C -0.1 18.8876 0.451293 16.0433 1.5826 13.3283C 3.83946 7.91093 7.68661 3.97767 12.9401 1.65733ZM 30.6136 38.5672L 30.5621 38.4814C 33.4288 36.7605 35.7043 34.4334 37.3658 31.4993C 39.0369 28.5471 39.8644 25.3273 39.8644 21.8704C 39.8644 18.4138 39.0315 15.221 37.3654 12.2904L 37.4523 12.2409L 37.3653 12.2903C 35.6989 9.35854 33.4282 7.02904 30.5617 5.30807L 30.6131 5.22234L 30.5617 5.30807C 27.7133 3.59781 24.5937 2.73494 21.2385 2.73494C 17.8839 2.73494 14.7842 3.59272 11.9394 5.30797L 11.8878 5.22234L 11.9394 5.30798C 9.09313 7.02392 6.81707 9.3535 5.15907 12.2902L 5.07199 12.241L 5.15907 12.2902C 3.50724 15.2156 2.68265 18.4136 2.68265 21.8705C 2.68265 24.4695 3.15871 26.9758 4.14045 29.33L 4.14046 29.33C 5.12622 31.6955 6.44367 33.7523 8.09747 35.4553C 9.75132 37.1578 11.7291 38.5046 14.0218 39.5297C 16.3119 40.554 18.7173 41.0541 21.239 41.0541C 24.5937 41.0541 27.7139 40.1917 30.5621 38.4814L 30.6136 38.5672Z" stroke-width="0.2" stroke-miterlimit="8" transform="translate(0.218567 1.10693)" stroke="#F5F5F5"/>
</g>
<g id="Vector_2">
<path fill-rule="evenodd" clip-rule="evenodd" d="M 0.323838 15.2813L 0.323775 15.2812C 0.02379 14.9718 -0.101146 14.5844 -0.053462 14.1291C -0.054385 14.1107 -0.0610068 14.0838 -0.0718017 14.0505L -0.0799455 14.0261L -0.0878497 14.0025C -0.0902496 13.995 -0.0928798 13.9865 -0.0949728 13.9782C -0.096625 13.9717 -0.100001 13.9576 -0.100001 13.9416L -0.100001 1.34145C -0.100001 0.546472 0.547006 -0.1 1.2794 -0.1C 2.05397 -0.1 2.72881 0.541905 2.72881 1.34145L 2.72881 13.7097L 9.21445 20.4361C 9.74968 20.9911 9.7886 21.852 9.21421 22.4436C 8.70981 22.9633 7.78435 22.9633 7.27965 22.4436L 0.323838 15.2813Z" transform="translate(20.1776 9.03516)" fill="#EF7D0B"/>
<path fill-rule="evenodd" clip-rule="evenodd" d="M 0.323838 15.2813L 0.323775 15.2812C 0.02379 14.9718 -0.101146 14.5844 -0.053462 14.1291C -0.054385 14.1107 -0.0610068 14.0838 -0.0718017 14.0505L -0.0799455 14.0261L -0.0878497 14.0025C -0.0902496 13.995 -0.0928798 13.9865 -0.0949728 13.9782C -0.096625 13.9717 -0.100001 13.9576 -0.100001 13.9416L -0.100001 1.34145C -0.100001 0.546472 0.547006 -0.1 1.2794 -0.1C 2.05397 -0.1 2.72881 0.541905 2.72881 1.34145L 2.72881 13.7097L 9.21445 20.4361C 9.74968 20.9911 9.7886 21.852 9.21421 22.4436C 8.70981 22.9633 7.78435 22.9633 7.27965 22.4436L 0.323838 15.2813Z" stroke-width="0.2" stroke-miterlimit="8" transform="translate(20.1776 9.03516)" stroke="#F5F5F5"/>
</g>
</g>
</g>
</svg>

