<svg width="43" height="46" viewBox="0 0 43 46" version="1.1" xmlns="http://www.w3.org/2000/svg" xmlns:xlink="http://www.w3.org/1999/xlink">
<g id="Canvas" fill="none">
<g id="Group">
<g id="Vector">
<path fill-rule="evenodd" clip-rule="evenodd" d="M 42.198 20.2992L 42.198 20.3992L 42.198 31.1142L 42.198 31.2142L 42.098 31.2142L 40.1577 31.2142L 40.1577 39.5881C 40.1577 41.9575 38.2851 43.8901 35.9771 43.8901L 4.08059 43.8901C 1.77254 43.8901 -0.1 41.9575 -0.1 39.5881L -0.1 10.7344C -0.1 8.3649 1.77254 6.43236 4.08059 6.43236L 16.1766 6.43236L 27.0063 0.230849L 27.0064 0.230803C 27.3845 0.0147549 27.8129 -0.1 28.2451 -0.1C 29.1724 -0.1 30.0259 0.417697 30.4739 1.24937L 33.2734 6.4325L 35.9771 6.4325C 38.2851 6.4325 40.1577 8.36503 40.1577 10.7345L 40.1577 20.2992L 42.098 20.2992L 42.198 20.2992ZM 27.9001 1.87324L 27.8997 1.87342L 13.0894 10.3537L 33.2965 10.3537L 28.8712 2.16029L 28.8711 2.16017C 28.6855 1.81539 28.2321 1.6815 27.9001 1.87324ZM 38.2844 10.3545C 38.1054 9.19728 37.1422 8.31322 35.9771 8.31322L 34.2895 8.31322L 35.3911 10.3545L 38.2844 10.3545ZM 35.9769 42.0093C 37.2688 42.0093 38.3254 40.9256 38.3254 39.5881L 38.3254 31.2151L 32.4571 31.2151C 29.6277 31.2151 27.3299 28.8448 27.3299 25.9383L 27.3299 25.5768C 27.3299 22.6705 29.6276 20.3 32.4571 20.3L 38.3254 20.3L 38.3254 12.2355L 36.239 12.2355L 6.41879 12.2355L 4.59069 12.2355C 4.08135 12.2355 3.67455 11.8114 3.67455 11.2951C 3.67455 10.7787 4.08135 10.3547 4.59069 10.3547L 9.32773 10.3547L 12.8926 8.31322L 4.08059 8.31322C 2.78869 8.31322 1.73216 9.39691 1.73216 10.7345L 1.73216 39.5881C 1.73216 40.9256 2.78869 42.0093 4.08059 42.0093L 35.9769 42.0093ZM 40.0577 29.3335L 40.3657 29.3335L 40.3657 22.1798L 40.0577 22.1798L 32.4571 22.1798C 30.6428 22.1798 29.162 23.7005 29.162 25.5759L 29.162 25.9374C 29.162 27.8129 30.6429 29.3335 32.4571 29.3335L 40.0577 29.3335ZM 35.0569 25.8257C 35.0569 26.9035 34.2085 27.7812 33.1549 27.7812C 32.1012 27.7812 31.253 26.9033 31.253 25.8257C 31.253 24.748 32.1014 23.8701 33.1549 23.8701C 34.2086 23.87 35.0569 24.7487 35.0569 25.8257Z" transform="translate(0.309509 1.10596)" fill="#EF7D0B"/>
<path fill-rule="evenodd" clip-rule="evenodd" d="M 42.198 20.2992L 42.198 20.3992L 42.198 31.1142L 42.198 31.2142L 42.098 31.2142L 40.1577 31.2142L 40.1577 39.5881C 40.1577 41.9575 38.2851 43.8901 35.9771 43.8901L 4.08059 43.8901C 1.77254 43.8901 -0.1 41.9575 -0.1 39.5881L -0.1 10.7344C -0.1 8.3649 1.77254 6.43236 4.08059 6.43236L 16.1766 6.43236L 27.0063 0.230849L 27.0064 0.230803C 27.3845 0.0147549 27.8129 -0.1 28.2451 -0.1C 29.1724 -0.1 30.0259 0.417697 30.4739 1.24937L 33.2734 6.4325L 35.9771 6.4325C 38.2851 6.4325 40.1577 8.36503 40.1577 10.7345L 40.1577 20.2992L 42.098 20.2992L 42.198 20.2992ZM 27.9001 1.87324L 27.8997 1.87342L 13.0894 10.3537L 33.2965 10.3537L 28.8712 2.16029L 28.8711 2.16017C 28.6855 1.81539 28.2321 1.6815 27.9001 1.87324ZM 38.2844 10.3545C 38.1054 9.19728 37.1422 8.31322 35.9771 8.31322L 34.2895 8.31322L 35.3911 10.3545L 38.2844 10.3545ZM 35.9769 42.0093C 37.2688 42.0093 38.3254 40.9256 38.3254 39.5881L 38.3254 31.2151L 32.4571 31.2151C 29.6277 31.2151 27.3299 28.8448 27.3299 25.9383L 27.3299 25.5768C 27.3299 22.6705 29.6276 20.3 32.4571 20.3L 38.3254 20.3L 38.3254 12.2355L 36.239 12.2355L 6.41879 12.2355L 4.59069 12.2355C 4.08135 12.2355 3.67455 11.8114 3.67455 11.2951C 3.67455 10.7787 4.08135 10.3547 4.59069 10.3547L 9.32773 10.3547L 12.8926 8.31322L 4.08059 8.31322C 2.78869 8.31322 1.73216 9.39691 1.73216 10.7345L 1.73216 39.5881C 1.73216 40.9256 2.78869 42.0093 4.08059 42.0093L 35.9769 42.0093ZM 40.0577 29.3335L 40.3657 29.3335L 40.3657 22.1798L 40.0577 22.1798L 32.4571 22.1798C 30.6428 22.1798 29.162 23.7005 29.162 25.5759L 29.162 25.9374C 29.162 27.8129 30.6429 29.3335 32.4571 29.3335L 40.0577 29.3335ZM 35.0569 25.8257C 35.0569 26.9035 34.2085 27.7812 33.1549 27.7812C 32.1012 27.7812 31.253 26.9033 31.253 25.8257C 31.253 24.748 32.1014 23.8701 33.1549 23.8701C 34.2086 23.87 35.0569 24.7487 35.0569 25.8257Z" stroke-width="0.2" stroke-miterlimit="8" transform="translate(0.309509 1.10596)" stroke="#EF7D0B"/>
</g>
</g>
</g>
</svg>

