<svg width="44" height="45" viewBox="0 0 44 45" version="1.1" xmlns="http://www.w3.org/2000/svg" xmlns:xlink="http://www.w3.org/1999/xlink">
<g id="Canvas" fill="none">
<g id="Group">
<g id="Vector">
<path fill-rule="evenodd" clip-rule="evenodd" d="M 0.782168 5.05258L 0.782166 5.05258C -0.392404 3.84297 -0.396079 1.94832 0.78329 0.808491C 1.95946 -0.401468 3.80371 -0.404966 4.91171 0.8108C 6.08516 2.02046 6.08846 3.91426 4.90947 5.05373C 4.32251 5.65766 3.58581 5.96225 2.84638 5.96225C 2.10647 5.96225 1.36939 5.65727 0.782168 5.05258ZM 3.77092 3.96057L 3.77092 3.96057C 4.30254 3.41321 4.30255 2.59562 3.77101 2.04816M 1.92192 2.04815L 1.92192 2.04816C 1.3903 2.59551 1.39036 3.41312 1.92193 3.96058C 2.45188 4.50638 3.24088 4.50638 3.77092 3.96057M 1.92192 2.04815C 2.18863 1.7735 2.51896 1.63882 2.84646 1.63882ZM 2.84646 1.63882C 3.17394 1.63882 3.50419 1.77349 3.77099 2.04815Z" transform="translate(10.9842 33.9116) scale(-1 1)" fill="#EF7D0B"/>
<path fill-rule="evenodd" clip-rule="evenodd" d="M 0.782168 5.05258L 0.782166 5.05258C -0.392404 3.84297 -0.396079 1.94832 0.78329 0.808491C 1.95946 -0.401468 3.80371 -0.404966 4.91171 0.8108C 6.08516 2.02046 6.08846 3.91426 4.90947 5.05373C 4.32251 5.65766 3.58581 5.96225 2.84638 5.96225C 2.10647 5.96225 1.36939 5.65727 0.782168 5.05258ZM 3.77092 3.96057L 3.77092 3.96057C 4.30254 3.41321 4.30255 2.59562 3.77101 2.04816M 1.92192 2.04815L 1.92192 2.04816C 1.3903 2.59551 1.39036 3.41312 1.92193 3.96058C 2.45188 4.50638 3.24088 4.50638 3.77092 3.96057M 1.92192 2.04815C 2.18863 1.7735 2.51896 1.63882 2.84646 1.63882ZM 2.84646 1.63882C 3.17394 1.63882 3.50419 1.77349 3.77099 2.04815Z" stroke-width="0.2" stroke-miterlimit="8" transform="translate(10.9842 33.9116) scale(-1 1)" stroke="#EF7D0B"/>
</g>
<g id="Vector_2">
<path d="M 42.1982 35.1734L 29.3893 21.9834L 34.4417 16.7806L 34.4418 16.7805L 37.4305 13.703L 37.4306 13.7029L 41.7712 9.23303C 42.981 7.98727 42.981 5.93552 41.7712 4.68976L 38.1421 0.952585C 37.5728 0.366419 36.79 0 35.9361 0C 35.0822 0 34.2994 0.366419 33.7301 0.952585L 29.3894 5.42251L 26.4006 8.50019L 21.3482 13.703L 8.68154 0.659502C 7.89875 -0.146585 6.47559 -0.146585 5.6928 0.659502L 0.640446 5.86227C -0.213482 6.66835 -0.213482 8.06061 0.640446 8.93994L 2.13482 10.4788L 6.19098 14.6556L 10.1759 18.7591C 10.1759 18.7591 10.1759 18.7591 10.176 18.7592L 13.307 21.9834L 1.88356 33.7467C 1.67058 33.8435 1.55575 34.0413 1.49437 34.2941L -5.56697e-10 43.0875C -5.56697e-10 43.3805 0.0711328 43.6004 0.213482 43.747C 0.355748 43.8935 0.498097 43.9668 0.711579 43.9668C 0.782712 43.9668 0.782712 43.9668 0.853928 43.9668L 9.06339 42.4039C 9.12018 42.4194 9.18147 42.428 9.25086 42.428C 9.46434 42.428 9.67782 42.3547 9.74895 42.2081L 21.3481 30.2638L 22.2732 31.2164C 22.2732 31.2164 22.2732 31.2164 22.2733 31.2165L 22.2733 31.2166L 24.2657 33.2683C 24.2657 33.2683 24.2657 33.2683 24.2658 33.2684L 24.2659 33.2684L 34.1571 43.454C 34.5129 43.8204 34.9399 43.9669 35.3669 43.9669C 35.7938 43.9669 36.2208 43.8203 36.5054 43.454L 42.1983 37.5917C 42.8387 36.9321 42.8387 35.8329 42.1982 35.1734ZM 9.25086 40.596L 6.76096 38.0321L 30.4204 13.7389L 32.8762 16.2677L 9.25086 40.596ZM 34.7263 1.97851C 35.3668 1.319 36.5053 1.319 37.1458 1.97851L 40.775 5.71568C 41.4154 6.37519 41.4154 7.5476 40.775 8.20711L 36.9323 12.1641L 30.8837 5.93552L 34.7263 1.97851ZM 29.8875 6.96144L 32.9118 10.0758L 35.9361 13.19L 33.9436 15.2418L 27.895 9.01319L 29.8875 6.96144ZM 13.6984 20.3346L 15.2284 18.7591C 15.513 18.4661 15.513 18.0264 15.2284 17.7332C 14.9437 17.44 14.5168 17.4401 14.2321 17.7332L 12.7021 19.3087L 11.6703 18.2462L 14.1609 15.6815C 14.4456 15.3884 14.4456 14.9487 14.1609 14.6555C 13.8763 14.3624 13.4494 14.3625 13.1647 14.6555L 10.674 17.2203L 9.67774 16.1944L 11.1721 14.6555C 11.4567 14.3625 11.4567 13.9228 11.1721 13.6296C 10.8875 13.3365 10.4605 13.3365 10.1758 13.6296L 8.68146 15.1685L 7.68518 14.1425L 10.1758 11.5778C 10.4604 11.2847 10.4604 10.845 10.1758 10.5519C 9.89122 10.2587 9.46425 10.2588 9.17956 10.5519L 6.68907 13.1168L 5.62166 12.0176L 7.11604 10.4788C 7.40065 10.1857 7.40065 9.74603 7.11604 9.45286C 6.83142 9.15969 6.40446 9.15978 6.11976 9.45286L 4.62539 10.9917L 3.62911 9.96578L 6.11976 7.40102C 6.40437 7.10794 6.40437 6.66827 6.11976 6.3751C 5.83514 6.08193 5.40818 6.08202 5.12348 6.3751L 2.63292 8.93994L 1.63664 7.91402C 1.35202 7.62094 1.35202 7.18127 1.63664 6.8881L 6.68907 1.68542C 6.83142 1.53884 6.97369 1.46559 7.18717 1.46559C 7.32952 1.46559 7.543 1.53884 7.68527 1.68542L 20.3519 14.7289L 14.3033 20.9575L 13.6984 20.3346ZM 26.8987 10.1124L 29.3886 12.6763L 5.72915 36.9695L 3.27336 34.4407L 26.8987 10.1124ZM 2.70405 35.9062L 5.03867 38.3103C 5.0742 38.394 5.12599 38.4734 5.1947 38.5442L 7.76699 41.1929L 1.63672 42.2813L 2.70405 35.9062ZM 41.202 36.5657L 35.5091 42.428C 35.438 42.5012 35.2245 42.5012 35.1533 42.428L 27.7882 34.8437L 30.3144 32.2423C 30.599 31.9493 30.599 31.5096 30.3144 31.2164C 30.0297 30.9233 29.6028 30.9233 29.3181 31.2164L 26.7919 33.8178L 25.7601 32.7553L 27.2545 31.2164C 27.5391 30.9233 27.5391 30.4837 27.2545 30.1905C 26.9699 29.8974 26.5429 29.8974 26.2582 30.1905L 24.7638 31.7293L 23.7675 30.7034L 26.2582 28.1387C 26.5428 27.8456 26.5428 27.4059 26.2582 27.1127C 25.9736 26.8197 25.5466 26.8197 25.2619 27.1127L 22.7714 29.6776L 22.3444 29.2379L 28.393 23.0093L 41.2019 36.1994C 41.2731 36.2726 41.2731 36.4924 41.202 36.5657Z" transform="translate(43.5046 0.49707) scale(-1 1)" fill="#EF7D0B"/>
<g mask="url(#path2_out1)" transform="translate(43.5046 0.49707) scale(-1 1)">
<path d="M 42.1982 35.1734L 29.3893 21.9834L 34.4417 16.7806L 34.4418 16.7805L 37.4305 13.703L 37.4306 13.7029L 41.7712 9.23303C 42.981 7.98727 42.981 5.93552 41.7712 4.68976L 38.1421 0.952585C 37.5728 0.366419 36.79 0 35.9361 0C 35.0822 0 34.2994 0.366419 33.7301 0.952585L 29.3894 5.42251L 26.4006 8.50019L 21.3482 13.703L 8.68154 0.659502C 7.89875 -0.146585 6.47559 -0.146585 5.6928 0.659502L 0.640446 5.86227C -0.213482 6.66835 -0.213482 8.06061 0.640446 8.93994L 2.13482 10.4788L 6.19098 14.6556L 10.1759 18.7591C 10.1759 18.7591 10.1759 18.7591 10.176 18.7592L 13.307 21.9834L 1.88356 33.7467C 1.67058 33.8435 1.55575 34.0413 1.49437 34.2941L -5.56697e-10 43.0875C -5.56697e-10 43.3805 0.0711328 43.6004 0.213482 43.747C 0.355748 43.8935 0.498097 43.9668 0.711579 43.9668C 0.782711 43.9668 0.782711 43.9668 0.853928 43.9668L 9.06339 42.4039C 9.12018 42.4194 9.18147 42.428 9.25086 42.428C 9.46434 42.428 9.67782 42.3547 9.74895 42.2081L 21.3481 30.2638L 22.2732 31.2164C 22.2732 31.2164 22.2732 31.2164 22.2733 31.2165L 22.2733 31.2166L 24.2657 33.2683C 24.2657 33.2683 24.2657 33.2683 24.2658 33.2684L 24.2659 33.2684L 34.1571 43.454C 34.5129 43.8204 34.9399 43.9669 35.3669 43.9669C 35.7938 43.9669 36.2208 43.8203 36.5054 43.454L 42.1983 37.5917C 42.8387 36.9321 42.8387 35.8329 42.1982 35.1734ZM 9.25086 40.596L 6.76096 38.0321L 30.4204 13.7389L 32.8762 16.2677L 9.25086 40.596ZM 34.7263 1.97851C 35.3668 1.319 36.5053 1.319 37.1458 1.97851L 40.775 5.71568C 41.4154 6.37519 41.4154 7.5476 40.775 8.20711L 36.9323 12.1641L 30.8837 5.93552L 34.7263 1.97851ZM 29.8875 6.96144L 32.9118 10.0758L 35.9361 13.19L 33.9436 15.2418L 27.895 9.01319L 29.8875 6.96144ZM 13.6984 20.3346L 15.2284 18.7591C 15.513 18.4661 15.513 18.0264 15.2284 17.7332C 14.9437 17.44 14.5168 17.4401 14.2321 17.7332L 12.7021 19.3087L 11.6703 18.2462L 14.1609 15.6815C 14.4456 15.3884 14.4456 14.9487 14.1609 14.6555C 13.8763 14.3624 13.4494 14.3625 13.1647 14.6555L 10.674 17.2203L 9.67774 16.1944L 11.1721 14.6555C 11.4567 14.3625 11.4567 13.9228 11.1721 13.6296C 10.8875 13.3365 10.4605 13.3365 10.1758 13.6296L 8.68146 15.1685L 7.68518 14.1425L 10.1758 11.5778C 10.4604 11.2847 10.4604 10.845 10.1758 10.5519C 9.89122 10.2587 9.46425 10.2588 9.17956 10.5519L 6.68907 13.1168L 5.62166 12.0176L 7.11604 10.4788C 7.40065 10.1857 7.40065 9.74603 7.11604 9.45286C 6.83142 9.15969 6.40446 9.15978 6.11976 9.45286L 4.62539 10.9917L 3.62911 9.96578L 6.11976 7.40102C 6.40437 7.10794 6.40437 6.66827 6.11976 6.3751C 5.83514 6.08193 5.40818 6.08202 5.12348 6.3751L 2.63292 8.93994L 1.63664 7.91402C 1.35202 7.62094 1.35202 7.18127 1.63664 6.8881L 6.68907 1.68542C 6.83142 1.53884 6.97369 1.46559 7.18717 1.46559C 7.32952 1.46559 7.543 1.53884 7.68527 1.68542L 20.3519 14.7289L 14.3033 20.9575L 13.6984 20.3346ZM 26.8987 10.1124L 29.3886 12.6763L 5.72915 36.9695L 3.27336 34.4407L 26.8987 10.1124ZM 2.70405 35.9062L 5.03867 38.3103C 5.0742 38.394 5.12599 38.4734 5.1947 38.5442L 7.76699 41.1929L 1.63672 42.2813L 2.70405 35.9062ZM 41.202 36.5657L 35.5091 42.428C 35.438 42.5012 35.2245 42.5012 35.1533 42.428L 27.7882 34.8437L 30.3144 32.2423C 30.599 31.9493 30.599 31.5096 30.3144 31.2164C 30.0297 30.9233 29.6028 30.9233 29.3181 31.2164L 26.7919 33.8178L 25.7601 32.7553L 27.2545 31.2164C 27.5391 30.9233 27.5391 30.4837 27.2545 30.1905C 26.9699 29.8974 26.5429 29.8974 26.2582 30.1905L 24.7638 31.7293L 23.7675 30.7034L 26.2582 28.1387C 26.5428 27.8456 26.5428 27.4059 26.2582 27.1127C 25.9736 26.8197 25.5466 26.8197 25.2619 27.1127L 22.7714 29.6776L 22.3444 29.2379L 28.393 23.0093L 41.2019 36.1994C 41.2731 36.2726 41.2731 36.4924 41.202 36.5657Z" stroke-width="0.4" stroke="#EF7D0B"/>
</g>
</g>
</g>
</g>
<defs>

<mask id="path2_out1" maskUnits="userSpaceOnUse" x="-1" y="-1" width="44" height="46" fill="black">
<rect fill="white" x="-1" y="-1" width="44" height="46"/>
<path d="M 42.1982 35.1734L 29.3893 21.9834L 34.4417 16.7806L 34.4418 16.7805L 37.4305 13.703L 37.4306 13.7029L 41.7712 9.23303C 42.981 7.98727 42.981 5.93552 41.7712 4.68976L 38.1421 0.952585C 37.5728 0.366419 36.79 0 35.9361 0C 35.0822 0 34.2994 0.366419 33.7301 0.952585L 29.3894 5.42251L 26.4006 8.50019L 21.3482 13.703L 8.68154 0.659502C 7.89875 -0.146585 6.47559 -0.146585 5.6928 0.659502L 0.640446 5.86227C -0.213482 6.66835 -0.213482 8.06061 0.640446 8.93994L 2.13482 10.4788L 6.19098 14.6556L 10.1759 18.7591C 10.1759 18.7591 10.1759 18.7591 10.176 18.7592L 13.307 21.9834L 1.88356 33.7467C 1.67058 33.8435 1.55575 34.0413 1.49437 34.2941L -5.56697e-10 43.0875C -5.56697e-10 43.3805 0.0711328 43.6004 0.213482 43.747C 0.355748 43.8935 0.498097 43.9668 0.711579 43.9668C 0.782712 43.9668 0.782712 43.9668 0.853928 43.9668L 9.06339 42.4039C 9.12018 42.4194 9.18147 42.428 9.25086 42.428C 9.46434 42.428 9.67782 42.3547 9.74895 42.2081L 21.3481 30.2638L 22.2732 31.2164C 22.2732 31.2164 22.2732 31.2164 22.2733 31.2165L 22.2733 31.2166L 24.2657 33.2683C 24.2657 33.2683 24.2657 33.2683 24.2658 33.2684L 24.2659 33.2684L 34.1571 43.454C 34.5129 43.8204 34.9399 43.9669 35.3669 43.9669C 35.7938 43.9669 36.2208 43.8203 36.5054 43.454L 42.1983 37.5917C 42.8387 36.9321 42.8387 35.8329 42.1982 35.1734ZM 9.25086 40.596L 6.76096 38.0321L 30.4204 13.7389L 32.8762 16.2677L 9.25086 40.596ZM 34.7263 1.97851C 35.3668 1.319 36.5053 1.319 37.1458 1.97851L 40.775 5.71568C 41.4154 6.37519 41.4154 7.5476 40.775 8.20711L 36.9323 12.1641L 30.8837 5.93552L 34.7263 1.97851ZM 29.8875 6.96144L 32.9118 10.0758L 35.9361 13.19L 33.9436 15.2418L 27.895 9.01319L 29.8875 6.96144ZM 13.6984 20.3346L 15.2284 18.7591C 15.513 18.4661 15.513 18.0264 15.2284 17.7332C 14.9437 17.44 14.5168 17.4401 14.2321 17.7332L 12.7021 19.3087L 11.6703 18.2462L 14.1609 15.6815C 14.4456 15.3884 14.4456 14.9487 14.1609 14.6555C 13.8763 14.3624 13.4494 14.3625 13.1647 14.6555L 10.674 17.2203L 9.67774 16.1944L 11.1721 14.6555C 11.4567 14.3625 11.4567 13.9228 11.1721 13.6296C 10.8875 13.3365 10.4605 13.3365 10.1758 13.6296L 8.68146 15.1685L 7.68518 14.1425L 10.1758 11.5778C 10.4604 11.2847 10.4604 10.845 10.1758 10.5519C 9.89122 10.2587 9.46425 10.2588 9.17956 10.5519L 6.68907 13.1168L 5.62166 12.0176L 7.11604 10.4788C 7.40065 10.1857 7.40065 9.74603 7.11604 9.45286C 6.83142 9.15969 6.40446 9.15978 6.11976 9.45286L 4.62539 10.9917L 3.62911 9.96578L 6.11976 7.40102C 6.40437 7.10794 6.40437 6.66827 6.11976 6.3751C 5.83514 6.08193 5.40818 6.08202 5.12348 6.3751L 2.63292 8.93994L 1.63664 7.91402C 1.35202 7.62094 1.35202 7.18127 1.63664 6.8881L 6.68907 1.68542C 6.83142 1.53884 6.97369 1.46559 7.18717 1.46559C 7.32952 1.46559 7.543 1.53884 7.68527 1.68542L 20.3519 14.7289L 14.3033 20.9575L 13.6984 20.3346ZM 26.8987 10.1124L 29.3886 12.6763L 5.72915 36.9695L 3.27336 34.4407L 26.8987 10.1124ZM 2.70405 35.9062L 5.03867 38.3103C 5.0742 38.394 5.12599 38.4734 5.1947 38.5442L 7.76699 41.1929L 1.63672 42.2813L 2.70405 35.9062ZM 41.202 36.5657L 35.5091 42.428C 35.438 42.5012 35.2245 42.5012 35.1533 42.428L 27.7882 34.8437L 30.3144 32.2423C 30.599 31.9493 30.599 31.5096 30.3144 31.2164C 30.0297 30.9233 29.6028 30.9233 29.3181 31.2164L 26.7919 33.8178L 25.7601 32.7553L 27.2545 31.2164C 27.5391 30.9233 27.5391 30.4837 27.2545 30.1905C 26.9699 29.8974 26.5429 29.8974 26.2582 30.1905L 24.7638 31.7293L 23.7675 30.7034L 26.2582 28.1387C 26.5428 27.8456 26.5428 27.4059 26.2582 27.1127C 25.9736 26.8197 25.5466 26.8197 25.2619 27.1127L 22.7714 29.6776L 22.3444 29.2379L 28.393 23.0093L 41.2019 36.1994C 41.2731 36.2726 41.2731 36.4924 41.202 36.5657Z"/>
</mask>

</defs>
</svg>

