<?xml version="1.0" encoding="utf-8"?>
<!-- Generator: Adobe Illustrator 18.0.0, SVG Export Plug-In . SVG Version: 6.00 Build 0)  -->
<!DOCTYPE svg PUBLIC "-//W3C//DTD SVG 1.1//EN" "http://www.w3.org/Graphics/SVG/1.1/DTD/svg11.dtd">
<svg version="1.1" id="Capa_1" xmlns="http://www.w3.org/2000/svg" xmlns:xlink="http://www.w3.org/1999/xlink" x="0px" y="0px"
	 viewBox="0 0 414.2 300" enable-background="new 0 0 414.2 300" xml:space="preserve">
<g>
	<g>
		<g>
			<rect x="150.9" y="0" fill="#568086" width="103.2" height="12.7"/>
			<rect x="150.9" y="21.1" fill="#568086" width="103.2" height="12.7"/>
			<rect x="150.9" y="42.6" fill="#568086" width="103.2" height="12.7"/>
			<rect x="150.9" y="62.8" fill="#568086" width="103.2" height="12.7"/>
			<rect x="150.9" y="83.9" fill="#568086" width="103.2" height="12.7"/>
			<rect x="150.9" y="105.4" fill="#568086" width="103.2" height="12.7"/>
			<rect x="150.9" y="126.9" fill="#568086" width="103.2" height="12.7"/>
		</g>
		<path fill="#C05D18" d="M17.5,151l65-8.8c0,0,149.3,43.9,305.6-33.4C388.1,108.9,226.5,216,17.5,151z"/>
	</g>
	<g>
		<path d="M52.1,190.3v17.9h-1.5c-1.1-4.7-3.2-8.3-6.3-10.7c-3-2.5-6.5-3.7-10.4-3.7c-3.2,0-6.2,0.9-8.9,2.8
			c-2.7,1.9-4.7,4.3-5.9,7.3c-1.6,3.8-2.4,8.1-2.4,12.8c0,4.6,0.6,8.8,1.8,12.6c1.2,3.8,3,6.7,5.5,8.6c2.5,1.9,5.7,2.9,9.7,2.9
			c3.3,0,6.2-0.7,8.9-2.1s5.6-3.9,8.6-7.4v4.5c-2.9,3-5.9,5.2-9.1,6.6c-3.1,1.4-6.8,2-11,2c-5.5,0-10.4-1.1-14.7-3.3
			c-4.3-2.2-7.6-5.4-9.9-9.5c-2.3-4.1-3.5-8.5-3.5-13.2c0-4.9,1.3-9.6,3.9-14c2.6-4.4,6.1-7.9,10.4-10.3s9-3.7,14-3.7
			c3.6,0,7.5,0.8,11.5,2.4c2.3,0.9,3.8,1.4,4.5,1.4c0.8,0,1.5-0.3,2.1-0.9c0.6-0.6,1-1.5,1.2-2.8H52.1z"/>
		<path d="M59,191.4h26.7v1.4h-1.3c-2,0-3.4,0.2-4.1,0.6c-0.7,0.4-1.3,1-1.6,1.7c-0.3,0.7-0.5,2.6-0.5,5.5V226c0,4.6,0.3,7.7,1,9.2
			c0.7,1.5,1.8,2.7,3.4,3.7s3.6,1.5,6.1,1.5c2.8,0,5.2-0.6,7.1-1.9c2-1.3,3.4-3,4.4-5.2c1-2.2,1.5-6.1,1.5-11.5v-21.1
			c0-2.3-0.2-4-0.7-5c-0.5-1-1.1-1.7-1.8-2.1c-1.1-0.6-2.8-0.9-4.8-0.9v-1.4h17.9v1.4h-1.1c-1.4,0-2.7,0.3-3.6,0.9
			c-1,0.6-1.7,1.5-2.1,2.6c-0.3,0.8-0.5,2.3-0.5,4.4v19.6c0,6.1-0.4,10.5-1.2,13.1c-0.8,2.7-2.8,5.2-5.9,7.4
			c-3.1,2.3-7.3,3.4-12.7,3.4c-4.5,0-7.9-0.6-10.4-1.8c-3.3-1.6-5.7-3.7-7.1-6.3s-2.1-6-2.1-10.3v-25.3c0-3-0.2-4.8-0.5-5.5
			c-0.3-0.7-0.9-1.3-1.7-1.7c-0.8-0.4-2.3-0.6-4.5-0.6V191.4z"/>
		<path d="M137.4,228.4h-18.3l-2.2,5c-0.7,1.7-1.1,3.1-1.1,4.2c0,1.4,0.6,2.5,1.8,3.2c0.7,0.4,2.4,0.7,5.1,0.9v1.4h-17.2v-1.4
			c1.9-0.3,3.4-1,4.6-2.3c1.2-1.3,2.7-3.9,4.4-7.8l18.5-41.2h0.7l18.6,42.4c1.8,4,3.2,6.5,4.4,7.6c0.9,0.8,2.1,1.2,3.7,1.4v1.4h-25
			v-1.4h1c2,0,3.4-0.3,4.2-0.8c0.6-0.4,0.8-1,0.8-1.8c0-0.5-0.1-0.9-0.2-1.4c-0.1-0.2-0.4-1.2-1.1-2.9L137.4,228.4z M136.1,225.6
			l-7.7-17.8l-7.9,17.8H136.1z"/>
		<path d="M182.8,219.6V234c0,2.8,0.2,4.6,0.5,5.3c0.3,0.7,0.9,1.3,1.8,1.7c0.9,0.4,2.5,0.6,4.8,0.6v1.4h-26.5v-1.4
			c2.4,0,4-0.2,4.9-0.7c0.9-0.4,1.4-1,1.8-1.7c0.3-0.7,0.5-2.5,0.5-5.3v-33.5c0-2.8-0.2-4.6-0.5-5.3c-0.3-0.7-0.9-1.3-1.8-1.7
			c-0.9-0.4-2.5-0.6-4.8-0.6v-1.4h24c6.3,0,10.8,0.4,13.7,1.3c2.9,0.9,5.3,2.5,7.1,4.8c1.8,2.3,2.7,5.1,2.7,8.2c0,3.8-1.4,7-4.1,9.5
			c-1.8,1.6-4.2,2.8-7.4,3.5l12.4,17.5c1.6,2.3,2.8,3.7,3.5,4.2c1,0.8,2.2,1.2,3.6,1.3v1.4h-16.3l-16.7-23.6H182.8z M182.8,194.2
			v22.6h2.2c3.5,0,6.2-0.3,7.9-1c1.8-0.6,3.1-1.8,4.1-3.5c1-1.7,1.5-3.9,1.5-6.6c0-3.9-0.9-6.8-2.8-8.7c-1.8-1.9-4.8-2.8-8.9-2.8
			H182.8z"/>
		<path d="M266.9,191.4l-30.4,48.8h9.8c4.7,0,7.9-0.3,9.8-0.9c3-0.9,5.6-2.6,7.8-5c2.2-2.5,3.7-5.7,4.5-9.9h1.5l-2.1,18.7h-47.3
			l30.4-48.9h-7.7c-3,0-4.9,0.1-5.9,0.3c-1.8,0.3-3.4,1-5,2c-1.6,1-2.9,2.3-3.9,3.9s-1.8,3.7-2.4,6.2h-1.4l1.4-15.1H266.9z"/>
		<path d="M273.9,191.4h26.7v1.4h-1.3c-2,0-3.4,0.2-4.1,0.6c-0.8,0.4-1.3,1-1.6,1.7c-0.3,0.7-0.5,2.6-0.5,5.5V226
			c0,4.6,0.3,7.7,1,9.2c0.7,1.5,1.8,2.7,3.4,3.7c1.6,1,3.6,1.5,6.1,1.5c2.8,0,5.2-0.6,7.1-1.9c2-1.3,3.4-3,4.4-5.2
			c1-2.2,1.5-6.1,1.5-11.5v-21.1c0-2.3-0.2-4-0.7-5c-0.5-1-1.1-1.7-1.8-2.1c-1.1-0.6-2.8-0.9-4.8-0.9v-1.4h17.9v1.4H326
			c-1.4,0-2.7,0.3-3.6,0.9c-1,0.6-1.7,1.5-2.1,2.6c-0.3,0.8-0.5,2.3-0.5,4.4v19.6c0,6.1-0.4,10.5-1.2,13.1c-0.8,2.7-2.8,5.2-5.9,7.4
			c-3.1,2.3-7.3,3.4-12.7,3.4c-4.5,0-7.9-0.6-10.4-1.8c-3.3-1.6-5.7-3.7-7.1-6.3c-1.4-2.5-2.1-6-2.1-10.3v-25.3c0-3-0.2-4.8-0.5-5.5
			c-0.3-0.7-0.9-1.3-1.7-1.7c-0.8-0.4-2.3-0.6-4.5-0.6V191.4z"/>
		<path d="M350,219.6V234c0,2.8,0.2,4.6,0.5,5.3c0.3,0.7,0.9,1.3,1.8,1.7c0.9,0.4,2.5,0.6,4.8,0.6v1.4h-26.5v-1.4
			c2.4,0,4-0.2,4.9-0.7c0.9-0.4,1.4-1,1.8-1.7c0.3-0.7,0.5-2.5,0.5-5.3v-33.5c0-2.8-0.2-4.6-0.5-5.3c-0.3-0.7-0.9-1.3-1.8-1.7
			c-0.9-0.4-2.5-0.6-4.8-0.6v-1.4h24c6.3,0,10.8,0.4,13.7,1.3c2.9,0.9,5.3,2.5,7.1,4.8c1.8,2.3,2.7,5.1,2.7,8.2c0,3.8-1.4,7-4.1,9.5
			c-1.8,1.6-4.2,2.8-7.4,3.5l12.4,17.5c1.6,2.3,2.8,3.7,3.5,4.2c1,0.8,2.2,1.2,3.6,1.3v1.4H370l-16.7-23.6H350z M350,194.2v22.6h2.2
			c3.5,0,6.2-0.3,7.9-1c1.8-0.6,3.1-1.8,4.1-3.5c1-1.7,1.5-3.9,1.5-6.6c0-3.9-0.9-6.8-2.8-8.7c-1.8-1.9-4.8-2.8-8.9-2.8H350z"/>
	</g>
	<g>
		<path d="M21.8,285c0,0.3,0,0.5,0,0.7c0,0.2-0.1,0.4-0.2,0.5s-0.2,0.2-0.2,0.3c-0.1,0.1-0.2,0.1-0.3,0.1H7.7
			c-0.3,0-0.6-0.1-0.9-0.3c-0.3-0.2-0.4-0.6-0.4-1.2v-24.7c0-0.6,0.1-0.9,0.4-1.2c0.3-0.2,0.6-0.3,0.9-0.3h13.2c0.1,0,0.2,0,0.3,0.1
			c0.1,0.1,0.2,0.2,0.2,0.3c0.1,0.1,0.1,0.3,0.1,0.5c0,0.2,0.1,0.4,0.1,0.7c0,0.3,0,0.5-0.1,0.7c0,0.2-0.1,0.4-0.1,0.5
			c-0.1,0.1-0.1,0.2-0.2,0.3c-0.1,0.1-0.2,0.1-0.3,0.1H10v8.7h9.3c0.1,0,0.2,0,0.3,0.1c0.1,0.1,0.2,0.2,0.2,0.3
			c0.1,0.1,0.1,0.3,0.1,0.5c0,0.2,0,0.4,0,0.7c0,0.3,0,0.5,0,0.7c0,0.2-0.1,0.3-0.1,0.5c-0.1,0.1-0.1,0.2-0.2,0.2
			c-0.1,0-0.2,0.1-0.3,0.1H10v9.9h11c0.1,0,0.2,0,0.3,0.1c0.1,0.1,0.2,0.1,0.2,0.3c0.1,0.1,0.1,0.3,0.2,0.5
			C21.7,284.5,21.8,284.7,21.8,285z"/>
		<path d="M75.4,272.2c0,2.4-0.3,4.5-0.9,6.3c-0.6,1.8-1.5,3.3-2.7,4.5c-1.2,1.2-2.6,2.1-4.3,2.6c-1.7,0.6-3.8,0.9-6.1,0.9h-5.9
			c-0.3,0-0.6-0.1-0.9-0.3c-0.3-0.2-0.4-0.6-0.4-1.2v-24.7c0-0.6,0.1-0.9,0.4-1.2c0.3-0.2,0.6-0.3,0.9-0.3h6.3
			c2.4,0,4.4,0.3,6.1,0.9c1.7,0.6,3,1.5,4.2,2.7c1.1,1.2,2,2.6,2.6,4.2C75.1,268.3,75.4,270.2,75.4,272.2z M71.6,272.4
			c0-1.5-0.2-2.9-0.6-4.2c-0.4-1.3-1-2.4-1.7-3.4c-0.8-0.9-1.8-1.7-3-2.2c-1.2-0.5-2.8-0.8-4.7-0.8h-3.8v21.6h3.8
			c1.8,0,3.3-0.2,4.5-0.7c1.2-0.4,2.2-1.1,3-2c0.8-0.9,1.4-2.1,1.8-3.4C71.4,275.9,71.6,274.3,71.6,272.4z"/>
		<path d="M111.1,286c0,0.1,0,0.2-0.1,0.3c-0.1,0.1-0.2,0.2-0.3,0.2c-0.1,0.1-0.3,0.1-0.6,0.1c-0.2,0-0.5,0.1-0.9,0.1
			c-0.3,0-0.6,0-0.9-0.1c-0.2,0-0.4-0.1-0.6-0.1c-0.1,0-0.2-0.1-0.3-0.2c-0.1-0.1-0.1-0.2-0.1-0.3v-26.6c0-0.1,0-0.2,0.1-0.3
			c0.1-0.1,0.2-0.2,0.3-0.2c0.1,0,0.3-0.1,0.6-0.1c0.2,0,0.5-0.1,0.8-0.1c0.4,0,0.7,0,0.9,0.1c0.2,0,0.4,0.1,0.6,0.1
			c0.1,0.1,0.2,0.1,0.3,0.2c0.1,0.1,0.1,0.2,0.1,0.3V286z"/>
		<path d="M159.4,260.4c0,0.3,0,0.5,0,0.7s-0.1,0.4-0.1,0.5c-0.1,0.1-0.2,0.2-0.2,0.3c-0.1,0.1-0.2,0.1-0.3,0.1h-10.2v9.4h9.6
			c0.1,0,0.2,0,0.3,0.1c0.1,0.1,0.2,0.1,0.2,0.2c0.1,0.1,0.1,0.3,0.1,0.5c0,0.2,0,0.4,0,0.7c0,0.3,0,0.5,0,0.7
			c0,0.2-0.1,0.3-0.1,0.5c-0.1,0.1-0.2,0.2-0.2,0.3c-0.1,0.1-0.2,0.1-0.3,0.1h-9.6V286c0,0.1,0,0.2-0.1,0.3
			c-0.1,0.1-0.2,0.2-0.3,0.2c-0.1,0.1-0.3,0.1-0.6,0.1c-0.2,0-0.5,0.1-0.9,0.1c-0.3,0-0.6,0-0.9-0.1c-0.2,0-0.4-0.1-0.6-0.1
			c-0.1,0-0.2-0.1-0.3-0.2s-0.1-0.2-0.1-0.3v-25.7c0-0.6,0.1-0.9,0.4-1.2c0.3-0.2,0.6-0.3,0.9-0.3h12.5c0.1,0,0.2,0,0.3,0.1
			c0.1,0.1,0.2,0.2,0.2,0.3c0.1,0.1,0.1,0.3,0.1,0.5C159.4,259.9,159.4,260.1,159.4,260.4z"/>
		<path d="M195.1,286c0,0.1,0,0.2-0.1,0.3c-0.1,0.1-0.2,0.2-0.3,0.2c-0.1,0.1-0.3,0.1-0.6,0.1c-0.2,0-0.5,0.1-0.9,0.1
			c-0.3,0-0.6,0-0.9-0.1c-0.2,0-0.4-0.1-0.6-0.1c-0.1,0-0.2-0.1-0.3-0.2c-0.1-0.1-0.1-0.2-0.1-0.3v-26.6c0-0.1,0-0.2,0.1-0.3
			c0.1-0.1,0.2-0.2,0.3-0.2c0.1,0,0.3-0.1,0.6-0.1c0.2,0,0.5-0.1,0.8-0.1c0.4,0,0.7,0,0.9,0.1c0.2,0,0.4,0.1,0.6,0.1
			c0.1,0.1,0.2,0.1,0.3,0.2c0.1,0.1,0.1,0.2,0.1,0.3V286z"/>
		<path d="M247.3,282.6c0,0.2,0,0.4,0,0.6c0,0.2,0,0.3-0.1,0.5c0,0.1-0.1,0.2-0.1,0.3c-0.1,0.1-0.2,0.2-0.3,0.4
			c-0.1,0.1-0.4,0.4-0.9,0.7c-0.5,0.3-1,0.6-1.7,0.9c-0.7,0.3-1.5,0.5-2.3,0.7c-0.9,0.2-1.8,0.3-2.9,0.3c-1.8,0-3.4-0.3-4.9-0.9
			c-1.5-0.6-2.7-1.5-3.7-2.7s-1.8-2.6-2.4-4.3c-0.6-1.7-0.8-3.7-0.8-5.9c0-2.3,0.3-4.4,0.9-6.2c0.6-1.8,1.4-3.3,2.5-4.6
			c1.1-1.3,2.4-2.2,3.8-2.9c1.5-0.7,3.1-1,5-1c0.8,0,1.6,0.1,2.3,0.2c0.8,0.1,1.5,0.3,2.1,0.6c0.6,0.2,1.2,0.5,1.7,0.8
			c0.5,0.3,0.8,0.5,1,0.7c0.2,0.2,0.3,0.3,0.4,0.4c0.1,0.1,0.1,0.2,0.1,0.4c0,0.1,0.1,0.3,0.1,0.5c0,0.2,0,0.4,0,0.7
			c0,0.3,0,0.5,0,0.7s-0.1,0.4-0.1,0.5c-0.1,0.1-0.1,0.2-0.2,0.3s-0.2,0.1-0.3,0.1c-0.2,0-0.5-0.1-0.8-0.4s-0.8-0.6-1.4-0.9
			c-0.6-0.3-1.3-0.6-2.1-0.9s-1.8-0.4-2.9-0.4c-1.2,0-2.4,0.2-3.4,0.7c-1,0.5-1.9,1.2-2.6,2.2c-0.7,1-1.3,2.1-1.7,3.5
			c-0.4,1.4-0.6,3-0.6,4.7c0,1.8,0.2,3.3,0.6,4.7s0.9,2.5,1.6,3.4c0.7,0.9,1.6,1.6,2.6,2.1c1,0.5,2.2,0.7,3.5,0.7
			c1.1,0,2.1-0.1,2.9-0.4c0.8-0.3,1.5-0.6,2.1-0.9c0.6-0.3,1.1-0.6,1.4-0.9c0.4-0.3,0.7-0.4,0.9-0.4c0.1,0,0.2,0,0.3,0.1
			s0.1,0.1,0.2,0.2c0,0.1,0.1,0.3,0.1,0.5C247.3,282,247.3,282.3,247.3,282.6z"/>
		<path d="M282.2,286c0,0.1,0,0.2-0.1,0.3c-0.1,0.1-0.2,0.2-0.3,0.2c-0.1,0.1-0.3,0.1-0.6,0.1c-0.2,0-0.5,0.1-0.9,0.1
			c-0.3,0-0.6,0-0.9-0.1c-0.2,0-0.4-0.1-0.6-0.1c-0.1,0-0.2-0.1-0.3-0.2c-0.1-0.1-0.1-0.2-0.1-0.3v-26.6c0-0.1,0-0.2,0.1-0.3
			c0.1-0.1,0.2-0.2,0.3-0.2c0.2,0,0.3-0.1,0.6-0.1c0.2,0,0.5-0.1,0.8-0.1c0.4,0,0.7,0,0.9,0.1c0.2,0,0.4,0.1,0.6,0.1
			c0.1,0.1,0.2,0.1,0.3,0.2s0.1,0.2,0.1,0.3V286z"/>
		<path d="M339.2,272.3c0,2.2-0.3,4.3-0.8,6.1c-0.5,1.8-1.3,3.3-2.4,4.6s-2.4,2.2-4,2.9c-1.6,0.7-3.4,1-5.6,1
			c-2.1,0-3.9-0.3-5.4-0.9c-1.5-0.6-2.8-1.5-3.8-2.7c-1-1.2-1.7-2.7-2.2-4.4s-0.7-3.8-0.7-6.1c0-2.2,0.3-4.2,0.8-6
			c0.5-1.8,1.3-3.3,2.4-4.6c1.1-1.3,2.4-2.2,4-2.9s3.4-1,5.6-1c2,0,3.8,0.3,5.3,0.9c1.5,0.6,2.8,1.5,3.8,2.7c1,1.2,1.8,2.6,2.2,4.4
			C338.9,268.1,339.2,270.1,339.2,272.3z M335.3,272.6c0-1.6-0.1-3-0.4-4.4s-0.7-2.5-1.4-3.5c-0.7-1-1.5-1.8-2.6-2.3
			c-1.1-0.6-2.4-0.8-4-0.8s-2.9,0.3-4,0.9c-1.1,0.6-2,1.4-2.6,2.4c-0.7,1-1.2,2.2-1.5,3.5c-0.3,1.3-0.4,2.7-0.4,4.2
			c0,1.6,0.1,3.1,0.4,4.5c0.3,1.4,0.7,2.6,1.4,3.5s1.5,1.8,2.6,2.3c1.1,0.6,2.4,0.8,4.1,0.8c1.6,0,3-0.3,4.1-0.9s2-1.4,2.7-2.4
			c0.7-1,1.1-2.2,1.4-3.5C335.1,275.5,335.3,274.1,335.3,272.6z"/>
		<path d="M386.3,278.7c0,1.3-0.2,2.5-0.7,3.5s-1.1,1.9-2,2.6c-0.9,0.7-1.9,1.2-3,1.6c-1.2,0.4-2.4,0.5-3.7,0.5
			c-0.9,0-1.8-0.1-2.6-0.2c-0.8-0.2-1.5-0.4-2.1-0.6c-0.6-0.2-1.1-0.5-1.6-0.7c-0.4-0.2-0.7-0.5-0.9-0.6c-0.2-0.2-0.3-0.4-0.4-0.7
			c-0.1-0.3-0.1-0.6-0.1-1.1c0-0.3,0-0.6,0-0.8c0-0.2,0.1-0.4,0.1-0.5c0.1-0.1,0.1-0.2,0.2-0.3c0.1,0,0.2-0.1,0.3-0.1
			c0.2,0,0.5,0.1,0.8,0.4c0.4,0.2,0.8,0.5,1.4,0.8s1.3,0.6,2.1,0.8c0.8,0.2,1.7,0.4,2.8,0.4c0.8,0,1.5-0.1,2.2-0.3
			c0.7-0.2,1.2-0.5,1.7-0.9c0.5-0.4,0.8-0.9,1.1-1.4c0.3-0.6,0.4-1.2,0.4-2c0-0.8-0.2-1.5-0.5-2s-0.8-1-1.4-1.5
			c-0.6-0.4-1.3-0.8-2-1.2c-0.8-0.4-1.5-0.7-2.3-1.1s-1.6-0.8-2.3-1.2c-0.7-0.4-1.4-1-2-1.6s-1.1-1.3-1.4-2.1
			c-0.4-0.8-0.5-1.8-0.5-2.9c0-1.2,0.2-2.2,0.6-3.1c0.4-0.9,1-1.7,1.8-2.3s1.6-1.1,2.7-1.4c1-0.3,2.2-0.5,3.4-0.5
			c0.6,0,1.2,0.1,1.9,0.2c0.6,0.1,1.2,0.2,1.8,0.4c0.6,0.2,1,0.4,1.5,0.6c0.4,0.2,0.7,0.4,0.8,0.5c0.1,0.1,0.2,0.2,0.3,0.3
			c0,0.1,0.1,0.2,0.1,0.3c0,0.1,0,0.3,0.1,0.4c0,0.2,0,0.4,0,0.7c0,0.3,0,0.5,0,0.7s-0.1,0.4-0.1,0.5s-0.1,0.2-0.2,0.3
			s-0.2,0.1-0.3,0.1c-0.2,0-0.4-0.1-0.7-0.3c-0.3-0.2-0.7-0.4-1.2-0.7s-1.1-0.5-1.7-0.7s-1.4-0.3-2.2-0.3c-0.8,0-1.4,0.1-2,0.3
			s-1,0.5-1.4,0.8c-0.4,0.3-0.7,0.8-0.8,1.2s-0.3,1-0.3,1.5c0,0.8,0.2,1.4,0.5,2c0.4,0.6,0.8,1.1,1.4,1.5c0.6,0.4,1.3,0.8,2,1.2
			c0.8,0.4,1.5,0.7,2.3,1.1c0.8,0.4,1.6,0.8,2.3,1.2c0.8,0.4,1.4,1,2,1.5c0.6,0.6,1.1,1.3,1.4,2.1
			C386.1,276.7,386.3,277.6,386.3,278.7z"/>
	</g>
</g>
</svg>
